<svg id="Icons" xmlns="http://www.w3.org/2000/svg" viewBox="0 0 512 512" height="75"><defs><style>.cls-4{fill:#efb732}.cls-5{fill:#fbdb58}.cls-6{fill:#f9eaa5}.cls-7{fill:#f4e6f4}.cls-9{fill:#decee5}.cls-12{fill:#8c4735}.cls-13{fill:#a05740}.cls-14{fill:#b76049}.cls-15{fill:#c2aacf}</style></defs><circle cx="256" cy="256" r="256" style="fill:#29a3fb"/><path d="M470.06 396.46a256.06 256.06 0 0 1-428.12 0z" style="fill:#f39e22"/><path d="M470.06 396.46A256.49 256.49 0 0 1 452 420.69a256 256 0 0 1-354.49-24.23z" style="fill:#f9c744"/><path class="cls-4" d="M305.3 310v97.88a2 2 0 0 1-.59 1.44 2.61 2.61 0 0 1-.46.34 2 2 0 0 1-1 .25 2 2 0 0 1-2-2V310a2 2 0 0 1 2-2 2 2 0 0 1 2 2z"/><path class="cls-5" d="M305.3 310v97.88a2 2 0 0 1-.59 1.44 2.61 2.61 0 0 1-.46.34 2.06 2.06 0 0 1-1.05-1.78V310a1.2 1.2 0 1 1 2.1 0z"/><path class="cls-4" d="M298.6 361.17v6.13a.59.59 0 0 1-.93.48c-5.66-3.94-16.91.1-17.42-20.25a.59.59 0 0 1 1-.43l.52.52 4 4a7.87 7.87 0 0 0 5.57 2.31 7.2 7.2 0 0 1 7.21 7.2z"/><path class="cls-5" d="M298.6 361.17v3.19c-5.45-3.29-15.28-.5-16.82-16.74l4 4a7.87 7.87 0 0 0 5.57 2.31 7.2 7.2 0 0 1 7.21 7.2z"/><ellipse class="cls-6" cx="289.28" cy="356.25" rx="1.87" ry="3.03" transform="rotate(-73.7 290.027 356.437)"/><ellipse class="cls-6" cx="294.84" cy="358.89" rx="1.3" ry="2.11" transform="rotate(-52.31 294.877 358.905)"/><path class="cls-4" d="M298.6 345.53v6.12a.6.6 0 0 1-.93.49c-5.66-3.95-16.91.09-17.42-20.26a.59.59 0 0 1 1-.43l.52.52 4 4a7.87 7.87 0 0 0 5.57 2.31 7.2 7.2 0 0 1 7.21 7.21z"/><path class="cls-5" d="M298.6 345.53v3.18c-5.45-3.29-15.28-.49-16.82-16.74l4 4a7.87 7.87 0 0 0 5.57 2.31 7.2 7.2 0 0 1 7.21 7.21z"/><ellipse class="cls-6" cx="289.28" cy="340.6" rx="1.87" ry="3.03" transform="rotate(-73.85 289.31 340.609)"/><ellipse class="cls-6" cx="294.84" cy="343.25" rx="1.3" ry="2.11" transform="rotate(-52.31 294.877 343.26)"/><path class="cls-4" d="M298.6 329.88V336a.59.59 0 0 1-.93.49c-5.66-3.94-16.91.1-17.42-20.26a.59.59 0 0 1 1-.43l.52.52 4 4.05a7.9 7.9 0 0 0 5.57 2.3 7.22 7.22 0 0 1 7.21 7.21z"/><path class="cls-5" d="M298.6 329.88v3.19c-5.45-3.29-15.28-.5-16.82-16.75l4 4.05a7.9 7.9 0 0 0 5.57 2.3 7.22 7.22 0 0 1 7.21 7.21z"/><ellipse class="cls-6" cx="289.28" cy="324.96" rx="1.87" ry="3.03" transform="rotate(-73.85 289.313 324.964)"/><ellipse class="cls-6" cx="294.84" cy="327.6" rx="1.3" ry="2.11" transform="rotate(-52.31 294.877 327.616)"/><path class="cls-4" d="M298.6 314.24v6.12a.59.59 0 0 1-.93.48c-5.66-3.94-16.91.1-17.42-20.25a.59.59 0 0 1 1-.43l.52.52 4 4a7.87 7.87 0 0 0 5.57 2.31 7.2 7.2 0 0 1 7.21 7.21z"/><path class="cls-5" d="M298.6 314.24v3.18c-5.45-3.29-15.28-.5-16.82-16.74l4 4a7.87 7.87 0 0 0 5.57 2.31 7.2 7.2 0 0 1 7.21 7.21z"/><ellipse class="cls-6" cx="289.28" cy="309.31" rx="1.87" ry="3.03" transform="rotate(-73.85 289.31 309.314)"/><ellipse class="cls-6" cx="294.84" cy="311.95" rx="1.3" ry="2.11" transform="rotate(-52.31 294.866 311.966)"/><path class="cls-4" d="m300.88 300.63-.54 6.09a.59.59 0 0 1-1 .41c-5.3-4.42-16.86-1.38-15.59-21.7a.59.59 0 0 1 1-.34l.47.56L289 290a7.86 7.86 0 0 0 5.34 2.79 7.2 7.2 0 0 1 6.56 7.81z"/><path class="cls-5" d="m300.88 300.63-.28 3.17c-5.15-3.75-15.18-1.83-15.3-18.15L289 290a7.86 7.86 0 0 0 5.34 2.79 7.2 7.2 0 0 1 6.56 7.81z"/><ellipse class="cls-6" cx="292.02" cy="294.91" rx="1.87" ry="3.03" transform="rotate(-68.85 292.057 294.915)"/><ellipse class="cls-6" cx="297.33" cy="298.02" rx="1.3" ry="2.11" transform="rotate(-47.31 297.366 298.03)"/><path class="cls-4" d="M307.94 361.17v6.13a.59.59 0 0 0 .93.48c5.67-3.94 16.91.1 17.42-20.25a.59.59 0 0 0-1-.43l-.52.52-4 4a7.87 7.87 0 0 1-5.57 2.31 7.22 7.22 0 0 0-7.21 7.2z"/><path class="cls-5" d="M307.94 361.17v3.19c5.45-3.29 15.28-.5 16.82-16.74l-4 4a7.87 7.87 0 0 1-5.57 2.31 7.22 7.22 0 0 0-7.21 7.2z"/><ellipse class="cls-6" cx="317.26" cy="356.25" rx="3.03" ry="1.87" transform="rotate(-16.15 317.146 356.155)"/><ellipse class="cls-6" cx="311.7" cy="358.89" rx="2.11" ry="1.3" transform="rotate(-37.69 311.661 358.862)"/><path class="cls-4" d="M307.94 345.53v6.12a.6.6 0 0 0 .93.49c5.67-3.95 16.91.09 17.42-20.26a.59.59 0 0 0-1-.43l-.52.52-4 4a7.87 7.87 0 0 1-5.57 2.31 7.22 7.22 0 0 0-7.21 7.21z"/><path class="cls-5" d="M307.94 345.53v3.18c5.45-3.29 15.28-.49 16.82-16.74l-4 4a7.87 7.87 0 0 1-5.57 2.31 7.22 7.22 0 0 0-7.21 7.21z"/><ellipse class="cls-6" cx="317.26" cy="340.6" rx="3.03" ry="1.87" transform="rotate(-16.15 317.136 340.515)"/><ellipse class="cls-6" cx="311.7" cy="343.25" rx="2.11" ry="1.3" transform="rotate(-37.69 311.651 343.222)"/><path class="cls-4" d="M307.94 329.88V336a.59.59 0 0 0 .93.49c5.67-3.94 16.91.1 17.42-20.26a.59.59 0 0 0-1-.43l-.52.52-4 4.05a7.9 7.9 0 0 1-5.57 2.3 7.24 7.24 0 0 0-7.21 7.21z"/><path class="cls-5" d="M307.94 329.88v3.19c5.45-3.29 15.28-.5 16.82-16.75l-4 4.05a7.9 7.9 0 0 1-5.57 2.3 7.24 7.24 0 0 0-7.21 7.21z"/><ellipse class="cls-6" cx="317.26" cy="324.96" rx="3.03" ry="1.87" transform="rotate(-16.15 317.16 324.88)"/><ellipse class="cls-6" cx="311.7" cy="327.6" rx="2.11" ry="1.3" transform="rotate(-37.69 311.66 327.572)"/><path class="cls-4" d="M307.94 314.24v6.12a.59.59 0 0 0 .93.48c5.67-3.94 16.91.1 17.42-20.25a.59.59 0 0 0-1-.43l-.52.52-4 4a7.87 7.87 0 0 1-5.57 2.31 7.22 7.22 0 0 0-7.21 7.21z"/><path class="cls-5" d="M307.94 314.24v3.18c5.45-3.29 15.28-.5 16.82-16.74l-4 4a7.87 7.87 0 0 1-5.57 2.31 7.22 7.22 0 0 0-7.21 7.21z"/><ellipse class="cls-6" cx="317.26" cy="309.31" rx="3.03" ry="1.87" transform="rotate(-16.15 317.15 309.24)"/><ellipse class="cls-6" cx="311.7" cy="311.95" rx="2.11" ry="1.3" transform="rotate(-37.69 311.65 311.932)"/><path class="cls-4" d="m305.67 300.63.53 6.09a.59.59 0 0 0 1 .41c5.31-4.42 16.86-1.38 15.59-21.7a.59.59 0 0 0-1-.34l-.47.56-3.76 4.35a7.86 7.86 0 0 1-5.34 2.79 7.18 7.18 0 0 0-6.55 7.81z"/><path class="cls-5" d="m305.67 300.63.27 3.17c5.15-3.75 15.18-1.83 15.3-18.15l-3.68 4.35a7.86 7.86 0 0 1-5.34 2.79 7.18 7.18 0 0 0-6.55 7.81z"/><ellipse class="cls-6" cx="314.52" cy="294.91" rx="3.03" ry="1.87" transform="rotate(-21.15 314.424 294.863)"/><ellipse class="cls-6" cx="309.21" cy="298.02" rx="2.11" ry="1.3" transform="rotate(-42.69 309.17 298.01)"/><path class="cls-4" d="m302.15 287.18-1.59 5.91a.59.59 0 0 1-1 .23c-4.45-5.27-16.36-4.28-11.58-24.08a.59.59 0 0 1 1.08-.15l.37.64 2.86 4.95a7.85 7.85 0 0 0 4.78 3.67 7.21 7.21 0 0 1 5.1 8.83z"/><path class="cls-5" d="m302.15 287.18-.83 3.07c-4.41-4.59-14.63-4.43-11.91-20.52l2.86 4.95a7.85 7.85 0 0 0 4.78 3.67 7.21 7.21 0 0 1 5.1 8.83z"/><ellipse class="cls-6" cx="294.42" cy="280.01" rx="1.87" ry="3.03" transform="matrix(.52 -.86 .86 .52 -97.5 387.17)"/><ellipse class="cls-6" cx="299.11" cy="284" rx="1.3" ry="2.11" transform="rotate(-37.31 299.144 284.024)"/><path class="cls-4" d="m304.4 287.18 1.58 5.91a.59.59 0 0 0 1 .23c4.45-5.27 16.36-4.28 11.58-24.08a.59.59 0 0 0-1.08-.15l-.37.64-2.86 4.95a7.85 7.85 0 0 1-4.78 3.67 7.21 7.21 0 0 0-5.09 8.83z"/><path class="cls-5" d="m304.4 287.18.82 3.07c4.41-4.59 14.63-4.43 11.91-20.52l-2.86 4.95a7.85 7.85 0 0 1-4.78 3.67 7.21 7.21 0 0 0-5.09 8.83z"/><ellipse class="cls-6" cx="312.12" cy="280.01" rx="3.03" ry="1.87" transform="rotate(-31.15 312.06 279.972)"/><ellipse class="cls-6" cx="307.43" cy="284" rx="2.11" ry="1.3" transform="rotate(-52.69 307.398 283.989)"/><path class="cls-4" d="M352.74 240v167.88a2.07 2.07 0 0 1-.59 1.44 2.61 2.61 0 0 1-.46.34 2 2 0 0 1-1 .25 2 2 0 0 1-2-2V240a2 2 0 0 1 2-2 2 2 0 0 1 2 2z"/><path class="cls-5" d="M352.74 240v167.88a2.07 2.07 0 0 1-.59 1.44 2.61 2.61 0 0 1-.46.34 2.06 2.06 0 0 1-1.05-1.78V240a1.2 1.2 0 1 1 2.1 0z"/><path class="cls-4" d="M346 291.17v6.13a.59.59 0 0 1-.93.48c-5.67-3.94-16.91.1-17.42-20.25a.59.59 0 0 1 1-.43l.52.52 4 4a7.87 7.87 0 0 0 5.57 2.31 7.22 7.22 0 0 1 7.21 7.2z"/><path class="cls-5" d="M346 291.17v3.19c-5.45-3.29-15.28-.5-16.82-16.74l4 4a7.87 7.87 0 0 0 5.57 2.31 7.22 7.22 0 0 1 7.21 7.2z"/><ellipse class="cls-6" cx="336.72" cy="286.25" rx="1.87" ry="3.03" transform="rotate(-73.7 337.458 286.292)"/><ellipse class="cls-6" cx="342.28" cy="288.89" rx="1.3" ry="2.11" transform="rotate(-52.31 342.31 288.9)"/><path class="cls-4" d="M346 275.53v6.12a.6.6 0 0 1-.93.49c-5.67-3.95-16.91.09-17.42-20.26a.59.59 0 0 1 1-.43l.52.52 4 4a7.87 7.87 0 0 0 5.57 2.31 7.22 7.22 0 0 1 7.21 7.21z"/><path class="cls-5" d="M346 275.53v3.18c-5.45-3.29-15.28-.49-16.82-16.74l4 4a7.87 7.87 0 0 0 5.57 2.31 7.22 7.22 0 0 1 7.21 7.21z"/><ellipse class="cls-6" cx="336.72" cy="270.6" rx="1.87" ry="3.03" transform="rotate(-73.85 336.748 270.6)"/><ellipse class="cls-6" cx="342.28" cy="273.25" rx="1.3" ry="2.11" transform="rotate(-52.31 342.31 273.255)"/><path class="cls-4" d="M346 259.88V266a.59.59 0 0 1-.93.49c-5.67-3.94-16.91.1-17.42-20.26a.59.59 0 0 1 1-.43l.52.52 4 4.05a7.9 7.9 0 0 0 5.57 2.3 7.24 7.24 0 0 1 7.21 7.21z"/><path class="cls-5" d="M346 259.88v3.19c-5.45-3.29-15.28-.5-16.82-16.75l4 4.05a7.9 7.9 0 0 0 5.57 2.3 7.24 7.24 0 0 1 7.21 7.21z"/><ellipse class="cls-6" cx="336.72" cy="254.96" rx="1.87" ry="3.03" transform="rotate(-73.85 336.751 254.954)"/><ellipse class="cls-6" cx="342.28" cy="257.6" rx="1.3" ry="2.11" transform="rotate(-52.31 342.314 257.6)"/><path class="cls-4" d="M346 244.24v6.12a.59.59 0 0 1-.93.48c-5.67-3.94-16.91.1-17.42-20.25a.59.59 0 0 1 1-.43l.52.52 4 4a7.87 7.87 0 0 0 5.57 2.31 7.22 7.22 0 0 1 7.21 7.21z"/><path class="cls-5" d="M346 244.24v3.18c-5.45-3.29-15.28-.5-16.82-16.74l4 4a7.87 7.87 0 0 0 5.57 2.31 7.22 7.22 0 0 1 7.21 7.21z"/><ellipse class="cls-6" cx="336.72" cy="239.31" rx="1.87" ry="3.03" transform="rotate(-73.7 337.41 239.287)"/><ellipse class="cls-6" cx="342.28" cy="241.95" rx="1.3" ry="2.11" transform="rotate(-52.31 342.314 241.956)"/><path class="cls-4" d="m348.31 230.63-.53 6.09a.59.59 0 0 1-1 .41c-5.31-4.42-16.86-1.38-15.59-21.7a.59.59 0 0 1 1-.34l.47.56 3.68 4.38a7.86 7.86 0 0 0 5.34 2.79 7.18 7.18 0 0 1 6.55 7.81z"/><path class="cls-5" d="m348.31 230.63-.31 3.17c-5.15-3.75-15.18-1.83-15.3-18.15l3.68 4.38a7.86 7.86 0 0 0 5.34 2.79 7.18 7.18 0 0 1 6.55 7.81z"/><ellipse class="cls-6" cx="339.46" cy="224.91" rx="1.87" ry="3.03" transform="rotate(-68.85 339.49 224.908)"/><ellipse class="cls-6" cx="344.77" cy="228.02" rx="1.3" ry="2.11" transform="rotate(-47.31 344.805 228.026)"/><path class="cls-4" d="M355.38 291.17v6.13a.59.59 0 0 0 .93.48c5.66-3.94 16.91.1 17.42-20.25a.59.59 0 0 0-1-.43l-.52.52-4 4a7.87 7.87 0 0 1-5.57 2.31 7.2 7.2 0 0 0-7.21 7.2z"/><path class="cls-5" d="M355.38 291.17v3.19c5.45-3.29 15.28-.5 16.82-16.74l-4 4a7.87 7.87 0 0 1-5.57 2.31 7.2 7.2 0 0 0-7.21 7.2z"/><ellipse class="cls-6" cx="364.7" cy="286.25" rx="3.03" ry="1.87" transform="rotate(-16.15 364.573 286.163)"/><ellipse class="cls-6" cx="359.14" cy="288.89" rx="2.11" ry="1.3" transform="rotate(-37.69 359.087 288.868)"/><path class="cls-4" d="M355.38 275.53v6.12a.6.6 0 0 0 .93.49c5.66-3.95 16.91.09 17.42-20.26a.59.59 0 0 0-1-.43l-.52.52-4 4a7.87 7.87 0 0 1-5.57 2.31 7.2 7.2 0 0 0-7.21 7.21z"/><path class="cls-5" d="M355.38 275.53v3.18c5.45-3.29 15.28-.49 16.82-16.74l-4 4a7.87 7.87 0 0 1-5.57 2.31 7.2 7.2 0 0 0-7.21 7.21z"/><ellipse class="cls-6" cx="364.7" cy="270.6" rx="3.03" ry="1.87" transform="rotate(-16.3 361.85 269.05)"/><ellipse class="cls-6" cx="359.14" cy="273.25" rx="2.11" ry="1.3" transform="rotate(-37.69 359.092 273.233)"/><path class="cls-4" d="M355.38 259.88V266a.59.59 0 0 0 .93.49c5.66-3.94 16.91.1 17.42-20.26a.59.59 0 0 0-1-.43l-.52.52-4 4.05a7.9 7.9 0 0 1-5.57 2.3 7.22 7.22 0 0 0-7.21 7.21z"/><path class="cls-5" d="M355.38 259.88v3.19c5.45-3.29 15.28-.5 16.82-16.75l-4 4.05a7.9 7.9 0 0 1-5.57 2.3 7.22 7.22 0 0 0-7.21 7.21z"/><ellipse class="cls-6" cx="364.7" cy="254.96" rx="3.03" ry="1.87" transform="rotate(-16.3 361.89 253.52)"/><ellipse class="cls-6" cx="359.14" cy="257.6" rx="2.11" ry="1.3" transform="rotate(-37.69 359.1 257.583)"/><path class="cls-4" d="M355.38 244.24v6.12a.59.59 0 0 0 .93.48c5.66-3.94 16.91.1 17.42-20.25a.59.59 0 0 0-1-.43l-.52.52-4 4a7.87 7.87 0 0 1-5.57 2.31 7.2 7.2 0 0 0-7.21 7.21z"/><path class="cls-5" d="M355.38 244.24v3.18c5.45-3.29 15.28-.5 16.82-16.74l-4 4a7.87 7.87 0 0 1-5.57 2.31 7.2 7.2 0 0 0-7.21 7.21z"/><ellipse class="cls-6" cx="364.7" cy="239.31" rx="3.03" ry="1.87" transform="rotate(-16.15 364.578 239.248)"/><ellipse class="cls-6" cx="359.14" cy="241.95" rx="2.11" ry="1.3" transform="rotate(-37.69 359.09 241.943)"/><path class="cls-4" d="m353.1 230.63.54 6.09a.59.59 0 0 0 1 .41c5.3-4.42 16.86-1.38 15.59-21.7a.59.59 0 0 0-1-.34l-.47.56L365 220a7.86 7.86 0 0 1-5.34 2.79 7.2 7.2 0 0 0-6.56 7.81z"/><path class="cls-5" d="m353.1 230.63.28 3.17c5.15-3.75 15.18-1.83 15.3-18.15L365 220a7.86 7.86 0 0 1-5.34 2.79 7.2 7.2 0 0 0-6.56 7.81z"/><ellipse class="cls-6" cx="361.96" cy="224.91" rx="3.03" ry="1.87" transform="rotate(-21.15 361.859 224.869)"/><ellipse class="cls-6" cx="356.65" cy="228.02" rx="2.11" ry="1.3" transform="rotate(-42.69 356.612 228.014)"/><path class="cls-4" d="m349.58 217.18-1.58 5.91a.59.59 0 0 1-1 .23c-4.45-5.27-16.36-4.28-11.58-24.08a.59.59 0 0 1 1.08-.15l.37.64 2.86 5a7.85 7.85 0 0 0 4.78 3.67 7.21 7.21 0 0 1 5.09 8.83z"/><path class="cls-5" d="m349.58 217.18-.82 3.07c-4.41-4.59-14.63-4.43-11.91-20.52l2.86 5a7.85 7.85 0 0 0 4.78 3.67 7.21 7.21 0 0 1 5.09 8.83z"/><ellipse class="cls-6" cx="341.86" cy="210.01" rx="1.87" ry="3.03" transform="rotate(-58.85 341.89 210.007)"/><ellipse class="cls-6" cx="346.55" cy="214" rx="1.3" ry="2.11" transform="rotate(-37.31 346.59 214.004)"/><path class="cls-4" d="m351.83 217.18 1.59 5.91a.59.59 0 0 0 1 .23c4.45-5.27 16.36-4.28 11.58-24.08a.59.59 0 0 0-1.08-.15l-.37.64-2.86 5a7.85 7.85 0 0 1-4.78 3.67 7.21 7.21 0 0 0-5.1 8.83z"/><path class="cls-5" d="m351.83 217.18.83 3.07c4.41-4.59 14.63-4.43 11.91-20.52l-2.86 5a7.85 7.85 0 0 1-4.78 3.67 7.21 7.21 0 0 0-5.1 8.83z"/><ellipse class="cls-6" cx="359.56" cy="210.01" rx="3.03" ry="1.87" transform="rotate(-31.15 359.5 209.991)"/><ellipse class="cls-6" cx="354.87" cy="214" rx="2.11" ry="1.3" transform="rotate(-52.69 354.841 214.005)"/><path class="cls-4" d="M400.18 310v97.88a2.07 2.07 0 0 1-.59 1.44 2.61 2.61 0 0 1-.46.34 2 2 0 0 1-3-1.78V310a2 2 0 1 1 4.06 0z"/><path class="cls-5" d="M400.18 310v97.88a2.07 2.07 0 0 1-.59 1.44 2.61 2.61 0 0 1-.46.34 2 2 0 0 1-1.05-1.78V310a1.2 1.2 0 1 1 2.1 0z"/><path class="cls-4" d="M393.47 361.17v6.13a.59.59 0 0 1-.92.48c-5.67-3.94-16.91.1-17.42-20.25a.58.58 0 0 1 1-.43l.52.52 4.05 4a7.87 7.87 0 0 0 5.57 2.31 7.2 7.2 0 0 1 7.2 7.2z"/><path class="cls-5" d="M393.47 361.17v3.19c-5.45-3.29-15.27-.5-16.82-16.74l4.05 4a7.87 7.87 0 0 0 5.57 2.31 7.2 7.2 0 0 1 7.2 7.2z"/><ellipse class="cls-6" cx="384.16" cy="356.25" rx="1.87" ry="3.03" transform="rotate(-73.85 384.195 356.248)"/><ellipse class="cls-6" cx="389.72" cy="358.89" rx="1.3" ry="2.11" transform="rotate(-52.31 389.755 358.906)"/><path class="cls-4" d="M393.47 345.53v6.12a.59.59 0 0 1-.92.49c-5.67-3.95-16.91.09-17.42-20.26a.58.58 0 0 1 1-.43l.52.52 4.05 4a7.87 7.87 0 0 0 5.57 2.31 7.2 7.2 0 0 1 7.2 7.21z"/><path class="cls-5" d="M393.47 345.53v3.18c-5.45-3.29-15.27-.49-16.82-16.74l4.05 4a7.87 7.87 0 0 0 5.57 2.31 7.2 7.2 0 0 1 7.2 7.21z"/><ellipse class="cls-6" cx="384.16" cy="340.6" rx="1.87" ry="3.03" transform="rotate(-73.85 384.198 340.604)"/><ellipse class="cls-6" cx="389.72" cy="343.25" rx="1.3" ry="2.11" transform="rotate(-52.31 389.76 343.251)"/><path class="cls-4" d="M393.47 329.88V336a.59.59 0 0 1-.92.49c-5.67-3.94-16.91.1-17.42-20.26a.58.58 0 0 1 1-.43l.52.52 4.05 4.05a7.9 7.9 0 0 0 5.57 2.3 7.22 7.22 0 0 1 7.2 7.21z"/><path class="cls-5" d="M393.47 329.88v3.19c-5.45-3.29-15.27-.5-16.82-16.75l4.05 4.05a7.9 7.9 0 0 0 5.57 2.3 7.22 7.22 0 0 1 7.2 7.21z"/><ellipse class="cls-6" cx="384.16" cy="324.96" rx="1.87" ry="3.03" transform="rotate(-73.85 384.195 324.954)"/><ellipse class="cls-6" cx="389.72" cy="327.6" rx="1.3" ry="2.11" transform="rotate(-52.31 389.76 327.606)"/><path class="cls-4" d="M393.47 314.24v6.12a.59.59 0 0 1-.92.48c-5.67-3.94-16.91.1-17.42-20.25a.58.58 0 0 1 1-.43l.52.52 4.05 4a7.87 7.87 0 0 0 5.57 2.31 7.2 7.2 0 0 1 7.2 7.21z"/><path class="cls-5" d="M393.47 314.24v3.18c-5.45-3.29-15.27-.5-16.82-16.74l4.05 4a7.87 7.87 0 0 0 5.57 2.31 7.2 7.2 0 0 1 7.2 7.21z"/><ellipse class="cls-6" cx="384.16" cy="309.31" rx="1.87" ry="3.03" transform="rotate(-73.85 384.198 309.309)"/><ellipse class="cls-6" cx="389.72" cy="311.95" rx="1.3" ry="2.11" transform="rotate(-52.31 389.76 311.962)"/><path class="cls-4" d="m395.75 300.63-.53 6.09a.59.59 0 0 1-1 .41c-5.31-4.42-16.86-1.38-15.59-21.7a.59.59 0 0 1 1-.34l.47.56 3.68 4.38a7.86 7.86 0 0 0 5.34 2.79 7.2 7.2 0 0 1 6.55 7.81z"/><path class="cls-5" d="m395.75 300.63-.27 3.17c-5.15-3.75-15.18-1.83-15.3-18.15l3.68 4.38a7.86 7.86 0 0 0 5.34 2.79 7.2 7.2 0 0 1 6.55 7.81z"/><ellipse class="cls-6" cx="386.9" cy="294.91" rx="1.87" ry="3.03" transform="rotate(-68.85 386.932 294.908)"/><ellipse class="cls-6" cx="392.21" cy="298.02" rx="1.3" ry="2.11" transform="rotate(-47.31 392.258 298.034)"/><path class="cls-4" d="M402.82 361.17v6.13a.59.59 0 0 0 .92.48c5.67-3.94 16.92.1 17.43-20.25a.59.59 0 0 0-1-.43l-.52.52-4 4A7.87 7.87 0 0 1 410 354a7.2 7.2 0 0 0-7.21 7.2z"/><path class="cls-5" d="M402.82 361.17v3.19c5.45-3.29 15.28-.5 16.82-16.74l-4 4A7.87 7.87 0 0 1 410 354a7.2 7.2 0 0 0-7.21 7.2z"/><ellipse class="cls-6" cx="412.14" cy="356.25" rx="3.03" ry="1.87" transform="rotate(-16.15 411.984 356.164)"/><ellipse class="cls-6" cx="406.58" cy="358.89" rx="2.11" ry="1.3" transform="rotate(-37.69 406.525 358.87)"/><path class="cls-4" d="M402.82 345.53v6.12a.59.59 0 0 0 .92.49c5.67-3.95 16.92.09 17.43-20.26a.59.59 0 0 0-1-.43l-.52.52-4 4a7.87 7.87 0 0 1-5.57 2.31 7.2 7.2 0 0 0-7.21 7.21z"/><path class="cls-5" d="M402.82 345.53v3.18c5.45-3.29 15.28-.49 16.82-16.74l-4 4a7.87 7.87 0 0 1-5.57 2.31 7.2 7.2 0 0 0-7.21 7.21z"/><ellipse class="cls-6" cx="412.14" cy="340.6" rx="3.03" ry="1.87" transform="rotate(-16.15 412.01 340.53)"/><ellipse class="cls-6" cx="406.58" cy="343.25" rx="2.11" ry="1.3" transform="rotate(-37.69 406.52 343.216)"/><path class="cls-4" d="M402.82 329.88V336a.59.59 0 0 0 .92.49c5.67-3.94 16.92.1 17.43-20.26a.59.59 0 0 0-1-.43l-.52.52-4 4.05a7.9 7.9 0 0 1-5.57 2.3 7.22 7.22 0 0 0-7.21 7.21z"/><path class="cls-5" d="M402.82 329.88v3.19c5.45-3.29 15.28-.5 16.82-16.75l-4 4.05a7.9 7.9 0 0 1-5.57 2.3 7.22 7.22 0 0 0-7.21 7.21z"/><ellipse class="cls-6" cx="412.14" cy="324.96" rx="3.03" ry="1.87" transform="rotate(-16.15 412 324.889)"/><ellipse class="cls-6" cx="406.58" cy="327.6" rx="2.11" ry="1.3" transform="rotate(-37.69 406.523 327.58)"/><path class="cls-4" d="M402.82 314.24v6.12a.59.59 0 0 0 .92.48c5.67-3.94 16.92.1 17.43-20.25a.59.59 0 0 0-1-.43l-.52.52-4 4A7.87 7.87 0 0 1 410 307a7.2 7.2 0 0 0-7.21 7.21z"/><path class="cls-5" d="M402.82 314.24v3.18c5.45-3.29 15.28-.5 16.82-16.74l-4 4A7.87 7.87 0 0 1 410 307a7.2 7.2 0 0 0-7.21 7.21z"/><ellipse class="cls-6" cx="412.14" cy="309.31" rx="3.03" ry="1.87" transform="rotate(-16.15 411.99 309.249)"/><ellipse class="cls-6" cx="406.58" cy="311.95" rx="2.11" ry="1.3" transform="rotate(-37.69 406.533 311.93)"/><path class="cls-4" d="m400.54 300.63.54 6.09a.59.59 0 0 0 1 .41c5.3-4.42 16.86-1.38 15.59-21.7a.59.59 0 0 0-1-.34l-.47.56-3.76 4.35a7.88 7.88 0 0 1-5.35 2.79 7.2 7.2 0 0 0-6.55 7.81z"/><path class="cls-5" d="m400.54 300.63.28 3.17c5.14-3.75 15.18-1.83 15.3-18.15l-3.68 4.35a7.88 7.88 0 0 1-5.35 2.79 7.2 7.2 0 0 0-6.55 7.81z"/><ellipse class="cls-6" cx="409.39" cy="294.91" rx="3.03" ry="1.87" transform="rotate(-21.15 409.294 294.865)"/><ellipse class="cls-6" cx="404.08" cy="298.02" rx="2.11" ry="1.3" transform="rotate(-42.69 404.035 298.004)"/><path class="cls-4" d="m397 287.18-1.58 5.91a.59.59 0 0 1-1 .23c-4.45-5.27-16.36-4.28-11.59-24.08a.6.6 0 0 1 1.09-.15l.37.64 2.86 4.95a7.85 7.85 0 0 0 4.78 3.67 7.21 7.21 0 0 1 5.09 8.83z"/><path class="cls-5" d="m397 287.18-.82 3.07c-4.41-4.59-14.63-4.43-11.91-20.52l2.86 4.95a7.85 7.85 0 0 0 4.78 3.67 7.21 7.21 0 0 1 5.09 8.83z"/><ellipse class="cls-6" cx="389.3" cy="280.01" rx="1.87" ry="3.03" transform="rotate(-58.85 389.338 280.015)"/><ellipse class="cls-6" cx="393.99" cy="284" rx="1.3" ry="2.11" transform="rotate(-37.31 394.028 284.018)"/><path class="cls-4" d="m399.27 287.18 1.59 5.91a.58.58 0 0 0 1 .23c4.46-5.27 16.37-4.28 11.59-24.08a.59.59 0 0 0-1.08-.15l-.37.64-2.86 4.95a7.85 7.85 0 0 1-4.78 3.67 7.21 7.21 0 0 0-5.1 8.83z"/><path class="cls-5" d="m399.27 287.18.83 3.07c4.41-4.59 14.62-4.43 11.91-20.52l-2.86 4.95a7.85 7.85 0 0 1-4.78 3.67 7.21 7.21 0 0 0-5.1 8.83z"/><ellipse class="cls-6" cx="407" cy="280.01" rx="3.03" ry="1.87" transform="rotate(-31.15 406.918 279.986)"/><ellipse class="cls-6" cx="402.31" cy="284" rx="2.11" ry="1.3" transform="rotate(-52.69 402.268 283.998)"/><path class="cls-4" d="M447.62 240v167.88a2 2 0 0 1-.6 1.44 2.22 2.22 0 0 1-.45.34 2 2 0 0 1-3-1.78V240a2 2 0 0 1 3-1.78 2 2 0 0 1 1.05 1.78z"/><path class="cls-5" d="M447.62 240v167.88a2 2 0 0 1-.6 1.44 2.22 2.22 0 0 1-.45.34 2 2 0 0 1-1.05-1.78V240a1.2 1.2 0 1 1 2.1 0z"/><path class="cls-4" d="M440.91 291.17v6.13a.59.59 0 0 1-.92.48c-5.67-3.94-16.92.1-17.42-20.25a.58.58 0 0 1 1-.43l.52.52 4.05 4a7.87 7.87 0 0 0 5.57 2.31 7.2 7.2 0 0 1 7.2 7.2z"/><path class="cls-5" d="M440.91 291.17v3.19c-5.45-3.29-15.27-.5-16.82-16.74l4.05 4a7.87 7.87 0 0 0 5.57 2.31 7.2 7.2 0 0 1 7.2 7.2z"/><ellipse class="cls-6" cx="431.6" cy="286.25" rx="1.87" ry="3.03" transform="rotate(-73.85 431.635 286.25)"/><ellipse class="cls-6" cx="437.16" cy="288.89" rx="1.3" ry="2.11" transform="rotate(-52.31 437.203 288.896)"/><path class="cls-4" d="M440.91 275.53v6.12a.59.59 0 0 1-.92.49c-5.67-3.95-16.92.09-17.42-20.26a.58.58 0 0 1 1-.43l.52.52 4.05 4a7.87 7.87 0 0 0 5.57 2.31 7.2 7.2 0 0 1 7.2 7.21z"/><path class="cls-5" d="M440.91 275.53v3.18c-5.45-3.29-15.27-.49-16.82-16.74l4.05 4a7.87 7.87 0 0 0 5.57 2.31 7.2 7.2 0 0 1 7.2 7.21z"/><ellipse class="cls-6" cx="431.6" cy="270.6" rx="1.87" ry="3.03" transform="rotate(-73.85 431.631 270.6)"/><ellipse class="cls-6" cx="437.16" cy="273.25" rx="1.3" ry="2.11" transform="rotate(-52.31 437.203 273.251)"/><path class="cls-4" d="M440.91 259.88V266a.59.59 0 0 1-.92.49c-5.67-3.94-16.92.1-17.42-20.26a.58.58 0 0 1 1-.43l.52.52 4.05 4.05a7.9 7.9 0 0 0 5.57 2.3 7.22 7.22 0 0 1 7.2 7.21z"/><path class="cls-5" d="M440.91 259.88v3.19c-5.45-3.29-15.27-.5-16.82-16.75l4.05 4.05a7.9 7.9 0 0 0 5.57 2.3 7.22 7.22 0 0 1 7.2 7.21z"/><ellipse class="cls-6" cx="431.6" cy="254.96" rx="1.87" ry="3.03" transform="rotate(-73.85 431.628 254.95)"/><ellipse class="cls-6" cx="437.16" cy="257.6" rx="1.3" ry="2.11" transform="rotate(-52.31 437.192 257.601)"/><path class="cls-4" d="M440.91 244.24v6.12a.59.59 0 0 1-.92.48c-5.67-3.94-16.92.1-17.42-20.25a.58.58 0 0 1 1-.43l.52.52 4.05 4a7.87 7.87 0 0 0 5.57 2.31 7.2 7.2 0 0 1 7.2 7.21z"/><path class="cls-5" d="M440.91 244.24v3.18c-5.45-3.29-15.27-.5-16.82-16.74l4.05 4a7.87 7.87 0 0 0 5.57 2.31 7.2 7.2 0 0 1 7.2 7.21z"/><ellipse class="cls-6" cx="431.6" cy="239.31" rx="1.87" ry="3.03" transform="rotate(-73.85 431.631 239.306)"/><ellipse class="cls-6" cx="437.16" cy="241.95" rx="1.3" ry="2.11" transform="rotate(-52.31 437.192 241.957)"/><path class="cls-4" d="m443.19 230.63-.53 6.09a.59.59 0 0 1-1 .41c-5.31-4.42-16.86-1.38-15.6-21.7a.59.59 0 0 1 1-.34l.48.56 3.67 4.38a7.9 7.9 0 0 0 5.35 2.79 7.2 7.2 0 0 1 6.55 7.81z"/><path class="cls-5" d="m443.19 230.63-.28 3.17c-5.14-3.75-15.17-1.83-15.29-18.15l3.67 4.38a7.9 7.9 0 0 0 5.35 2.79 7.2 7.2 0 0 1 6.55 7.81z"/><ellipse class="cls-6" cx="434.34" cy="224.91" rx="1.87" ry="3.03" transform="rotate(-68.85 434.377 224.899)"/><ellipse class="cls-6" cx="439.65" cy="228.02" rx="1.3" ry="2.11" transform="rotate(-47.31 439.697 228.029)"/><path class="cls-4" d="M450.26 291.17v6.13a.59.59 0 0 0 .92.48c5.67-3.94 16.92.1 17.43-20.25a.59.59 0 0 0-1-.43l-.52.52-4.05 4a7.85 7.85 0 0 1-5.56 2.31 7.2 7.2 0 0 0-7.21 7.2z"/><path class="cls-5" d="M450.26 291.17v3.19c5.45-3.29 15.28-.5 16.82-16.74l-4.05 4a7.85 7.85 0 0 1-5.56 2.31 7.2 7.2 0 0 0-7.21 7.2z"/><ellipse class="cls-6" cx="459.58" cy="286.25" rx="3.03" ry="1.87" transform="rotate(-16.15 459.412 286.173)"/><ellipse class="cls-6" cx="454.02" cy="288.89" rx="2.11" ry="1.3" transform="rotate(-37.69 453.965 288.881)"/><path class="cls-4" d="M450.26 275.53v6.12a.59.59 0 0 0 .92.49c5.67-3.95 16.92.09 17.43-20.26a.59.59 0 0 0-1-.43l-.52.52L463 266a7.85 7.85 0 0 1-5.56 2.31 7.2 7.2 0 0 0-7.21 7.21z"/><path class="cls-5" d="M450.26 275.53v3.18c5.45-3.29 15.28-.49 16.82-16.74L463 266a7.85 7.85 0 0 1-5.56 2.31 7.2 7.2 0 0 0-7.21 7.21z"/><ellipse class="cls-6" cx="459.58" cy="270.6" rx="3.03" ry="1.87" transform="rotate(-16.15 459.437 270.538)"/><ellipse class="cls-6" cx="454.02" cy="273.25" rx="2.11" ry="1.3" transform="rotate(-37.69 453.96 273.226)"/><path class="cls-4" d="M450.26 259.88V266a.59.59 0 0 0 .92.49c5.67-3.94 16.92.1 17.43-20.26a.59.59 0 0 0-1-.43l-.52.52-4.09 4.05a7.88 7.88 0 0 1-5.56 2.3 7.22 7.22 0 0 0-7.21 7.21z"/><path class="cls-5" d="M450.26 259.88v3.19c5.45-3.29 15.28-.5 16.82-16.75l-4.08 4.05a7.88 7.88 0 0 1-5.56 2.3 7.22 7.22 0 0 0-7.21 7.21z"/><ellipse class="cls-6" cx="459.58" cy="254.96" rx="3.03" ry="1.87" transform="rotate(-16.15 459.427 254.897)"/><ellipse class="cls-6" cx="454.02" cy="257.6" rx="2.11" ry="1.3" transform="rotate(-37.69 453.964 257.591)"/><path class="cls-4" d="M450.26 244.24v6.12a.59.59 0 0 0 .92.48c5.67-3.94 16.92.1 17.43-20.25a.59.59 0 0 0-1-.43l-.52.52-4.05 4a7.85 7.85 0 0 1-5.56 2.31 7.2 7.2 0 0 0-7.21 7.21z"/><path class="cls-5" d="M450.26 244.24v3.18c5.45-3.29 15.28-.5 16.82-16.74l-4.05 4a7.85 7.85 0 0 1-5.56 2.31 7.2 7.2 0 0 0-7.21 7.21z"/><ellipse class="cls-6" cx="459.58" cy="239.31" rx="3.03" ry="1.87" transform="rotate(-16.15 459.417 239.257)"/><ellipse class="cls-6" cx="454.02" cy="241.95" rx="2.11" ry="1.3" transform="rotate(-37.69 453.958 241.937)"/><path class="cls-4" d="m448 230.63.54 6.09a.59.59 0 0 0 1 .41c5.3-4.42 16.86-1.38 15.59-21.7a.59.59 0 0 0-1-.34l-.47.56-3.78 4.35a7.88 7.88 0 0 1-5.35 2.79 7.2 7.2 0 0 0-6.55 7.81z"/><path class="cls-5" d="m448 230.63.28 3.17c5.14-3.75 15.17-1.83 15.3-18.15l-3.7 4.35a7.88 7.88 0 0 1-5.35 2.79 7.2 7.2 0 0 0-6.55 7.81z"/><ellipse class="cls-6" cx="456.83" cy="224.91" rx="3.03" ry="1.87" transform="rotate(-21.15 456.728 224.87)"/><ellipse class="cls-6" cx="451.52" cy="228.02" rx="2.11" ry="1.3" transform="rotate(-42.69 451.472 228.02)"/><path class="cls-4" d="m444.46 217.18-1.58 5.91a.59.59 0 0 1-1 .23c-4.46-5.27-16.37-4.28-11.59-24.08a.6.6 0 0 1 1.09-.15l.36.64 2.86 5a7.9 7.9 0 0 0 4.78 3.67 7.21 7.21 0 0 1 5.1 8.83z"/><path class="cls-5" d="m444.46 217.18-.82 3.07c-4.42-4.59-14.63-4.43-11.92-20.52l2.86 5a7.9 7.9 0 0 0 4.78 3.67 7.21 7.21 0 0 1 5.1 8.83z"/><ellipse class="cls-6" cx="436.74" cy="210.01" rx="1.87" ry="3.03" transform="rotate(-58.85 436.784 210.004)"/><ellipse class="cls-6" cx="441.43" cy="214" rx="1.3" ry="2.11" transform="rotate(-37.31 441.474 213.998)"/><path class="cls-4" d="m446.71 217.18 1.59 5.91a.58.58 0 0 0 1 .23c4.46-5.27 16.37-4.28 11.59-24.08a.59.59 0 0 0-1.08-.15l-.37.64-2.86 5a7.9 7.9 0 0 1-4.78 3.67 7.21 7.21 0 0 0-5.1 8.83z"/><path class="cls-5" d="m446.71 217.18.83 3.07c4.41-4.59 14.62-4.43 11.91-20.52l-2.86 5a7.9 7.9 0 0 1-4.78 3.67 7.21 7.21 0 0 0-5.1 8.83z"/><ellipse class="cls-6" cx="454.44" cy="210.01" rx="3.03" ry="1.87" transform="rotate(-31.15 454.363 209.987)"/><ellipse class="cls-6" cx="449.75" cy="214" rx="2.11" ry="1.3" transform="rotate(-52.69 449.706 213.998)"/><path class="cls-7" d="M207.51 410.7h-102.9a15.56 15.56 0 0 1-15.5-16.93l15.09-171.21h103.73L223 393.77a15.56 15.56 0 0 1-15.49 16.93z"/><path d="M207.51 410.7H123.1a15.57 15.57 0 0 1-15.5-16.93l15.09-171.21h85.24L223 393.77a15.56 15.56 0 0 1-15.49 16.93z" style="fill:#fff"/><path class="cls-9" d="M133.28 246.65v8.86a5.64 5.64 0 0 1-5.63 5.63H100.8l1.77-20.14h25.08a5.64 5.64 0 0 1 5.63 5.65zM135.68 303.32v8.85a5.62 5.62 0 0 1-5.63 5.63H95.8l1.77-20.09h32.48a5.63 5.63 0 0 1 5.63 5.61zM125.64 333.32v8.85a5.62 5.62 0 0 1-5.64 5.63H93.16l1.77-20.11H120a5.63 5.63 0 0 1 5.64 5.63zM129 379.28v8.86a5.63 5.63 0 0 1-5.64 5.63H89.11l1.77-20.12h32.47a5.63 5.63 0 0 1 5.65 5.63z"/><path class="cls-7" d="M223 393.77h-19.44a5.63 5.63 0 0 1-5.63-5.63v-8.86a5.63 5.63 0 0 1 5.63-5.63h17.68zM219.76 356.82h-34.25a5.63 5.63 0 0 1-5.63-5.63v-8.85a5.62 5.62 0 0 1 5.63-5.63H218zM216.09 315.18h-34.25a5.64 5.64 0 0 1-5.64-5.63v-8.86a5.64 5.64 0 0 1 5.64-5.63h32.47zM213.08 281h-19.46a5.63 5.63 0 0 1-5.63-5.63v-8.85a5.63 5.63 0 0 1 5.63-5.64h17.68zM120 347.8h-8.36l1.77-20.11H120a5.63 5.63 0 0 1 5.63 5.63v8.85a5.62 5.62 0 0 1-5.63 5.63zM129 379.28v8.86a5.63 5.63 0 0 1-5.64 5.63H107.6l1.78-20.12h14a5.63 5.63 0 0 1 5.62 5.63zM127.65 261.14h-8.36l1.77-20.14h6.59a5.64 5.64 0 0 1 5.63 5.63v8.86a5.64 5.64 0 0 1-5.63 5.65zM135.68 303.32v8.85a5.62 5.62 0 0 1-5.63 5.63H114.3l1.77-20.12h14a5.63 5.63 0 0 1 5.61 5.64z"/><path d="M207.93 222.56H104.2l34.41-47.17a21.58 21.58 0 0 1 34.9 0z" style="fill:#e52e44"/><path d="M207.93 222.56h-85.24l34.41-47.17a21.46 21.46 0 0 1 8.21-6.8 21.43 21.43 0 0 1 8.2 6.8z" style="fill:#fa4654"/><path class="cls-12" d="M174.87 368.45v42.25h-37.62v-42.25a7.69 7.69 0 0 1 7.7-7.69h22.22a7.69 7.69 0 0 1 7.7 7.69z"/><path class="cls-13" d="M174.87 377.42v33.28h-37.62v-33.28a7.71 7.71 0 0 1 7.7-7.71h22.22a7.71 7.71 0 0 1 7.7 7.71z"/><ellipse class="cls-14" cx="166.18" cy="380.46" rx="4.33" ry="7.22"/><ellipse class="cls-14" cx="166.18" cy="393.81" rx="2.89" ry="4.4"/><path class="cls-15" d="m264 136.89-92.86 78.45-.68.58a5.5 5.5 0 0 1-7.77-7.73l73.21-88.09a4.39 4.39 0 0 1 5.28-1.13l2.88 1.4 19 9.24a4.37 4.37 0 0 1 .94 7.28z"/><path class="cls-9" d="m264 136.89-92.86 78.45a5.51 5.51 0 0 1-.08-7.15l73.05-87.82 19 9.24a4.37 4.37 0 0 1 .89 7.28z"/><ellipse class="cls-7" cx="243.89" cy="145.16" rx="10.62" ry="4.53" transform="rotate(-42.14 243.891 145.16)"/><ellipse class="cls-7" cx="229.32" cy="158.34" rx="6.48" ry="3.03" transform="rotate(-42.14 229.32 158.34)"/><path class="cls-15" d="M48.13 308.22 141 229.76l.68-.57a5.5 5.5 0 0 1 7.78 7.72L76.18 325a4.36 4.36 0 0 1-5.28 1.13l-2.9-1.4-19-9.23a4.37 4.37 0 0 1-.87-7.28z"/><path class="cls-9" d="M48.13 308.22 141 229.76a5.5 5.5 0 0 1 .09 7.15L68 324.73l-19-9.23a4.37 4.37 0 0 1-.87-7.28z"/><ellipse class="cls-7" cx="68.2" cy="299.94" rx="10.62" ry="4.53" transform="rotate(-42.14 68.201 299.935)"/><ellipse class="cls-7" cx="82.77" cy="286.76" rx="6.48" ry="3.03" transform="rotate(-42.14 82.773 286.754)"/><path class="cls-15" d="m241.71 330.46-78.45-92.86-.58-.68a5.5 5.5 0 0 1 7.72-7.78l88.09 73.27a4.38 4.38 0 0 1 1.14 5.28l-1.4 2.87-9.24 19a4.38 4.38 0 0 1-7.28.9z"/><path class="cls-9" d="m241.71 330.46-78.45-92.86a5.5 5.5 0 0 1 7.14-.09l87.83 73.05-9.24 19a4.38 4.38 0 0 1-7.28.9z"/><ellipse class="cls-7" cx="233.43" cy="310.4" rx="4.53" ry="10.62" transform="rotate(-42.14 233.425 310.396)"/><ellipse class="cls-7" cx="220.25" cy="295.83" rx="3.03" ry="6.48" transform="rotate(-42.14 220.244 295.824)"/><path class="cls-15" d="m70.38 114.64 78.45 92.86.58.68a5.5 5.5 0 0 1-7.72 7.78L53.6 142.69a4.37 4.37 0 0 1-1.14-5.28l1.4-2.87 9.24-19a4.37 4.37 0 0 1 7.28-.9z"/><path class="cls-9" d="m70.38 114.64 78.45 92.86a5.5 5.5 0 0 1-7.14.09l-87.83-73.05 9.24-19a4.37 4.37 0 0 1 7.28-.9z"/><ellipse class="cls-7" cx="78.65" cy="134.71" rx="4.53" ry="10.62" transform="rotate(-42.14 78.65 134.706)"/><ellipse class="cls-7" cx="91.84" cy="149.28" rx="3.03" ry="6.48" transform="rotate(-42.14 91.83 149.278)"/><path class="cls-12" d="M168.83 222.56a12.65 12.65 0 0 1-2.18 7.13A12.77 12.77 0 1 1 148.92 212a12.65 12.65 0 0 1 7.13-2.18 12.78 12.78 0 0 1 12.78 12.74z"/><path class="cls-13" d="M168.83 222.56a12.65 12.65 0 0 1-2.18 7.13A12.78 12.78 0 0 1 148.92 212a12.65 12.65 0 0 1 7.13-2.18 12.78 12.78 0 0 1 12.78 12.74z"/><ellipse class="cls-14" cx="161.67" cy="217.14" rx="3.62" ry="5.33" transform="rotate(-36.74 161.655 217.126)"/><ellipse class="cls-14" cx="163.41" cy="226.67" rx="3.71" ry="1.96" transform="rotate(-78.3 163.42 226.67)"/></svg>